<svg width="192" height="192" viewBox="0 0 192 192" fill="none" xmlns="http://www.w3.org/2000/svg">
<rect width="192" height="192" fill="url(#paint0_linear)"/>
<path d="M148 66.4517V108.823C148 125.641 134.279 139.275 117.356 139.275H114.256L98.428 154.994C97.8081 155.61 96.9505 156 96 156C95.1218 156 94.3262 155.682 93.7167 155.148L93.448 154.881L93.4377 154.871L77.7437 139.275H74.6338C57.7206 139.275 44 125.641 44 108.823V66.4517C44 49.6345 57.7206 36 74.6441 36H117.356C134.279 36 148 49.6345 148 66.4517Z" fill="#FFD666"/>
<path d="M68.2145 94.6982C65.1975 94.6982 63.478 98.1144 65.2284 100.581C72.0345 110.19 83.2888 116.454 96.0052 116.454C108.722 116.454 119.966 110.179 126.772 100.581C128.522 98.1144 126.803 94.6982 123.786 94.6982H68.2145Z" fill="white"/>
<path d="M85.8835 80.1562H67.679V71.0327C67.679 65.9961 71.7564 61.9091 76.7812 61.9091C81.806 61.9091 85.8835 65.9961 85.8835 71.0327V80.1562Z" fill="white"/>
<path d="M124.331 80.1562H106.127V71.0327C106.127 65.9961 110.204 61.9091 115.229 61.9091C120.254 61.9091 124.331 65.9961 124.331 71.0327V80.1562Z" fill="white"/>
<defs>
<linearGradient id="paint0_linear" x1="192" y1="192" x2="58.7622" y2="-34.5578" gradientUnits="userSpaceOnUse">
<stop stop-color="#2AB5D1"/>
<stop offset="1" stop-color="#00C7C7"/>
</linearGradient>
</defs>
</svg>
